<?xml version="1.0" standalone="no"?>
<!DOCTYPE svg PUBLIC "-//W3C//DTD SVG 20010904//EN"
 "http://www.w3.org/TR/2001/REC-SVG-20010904/DTD/svg10.dtd">
<svg version="1.0" xmlns="http://www.w3.org/2000/svg"
 width="1896.000000pt" height="1006.000000pt" viewBox="0 0 1896.000000 1006.000000"
 preserveAspectRatio="xMidYMid meet">

<g transform="translate(0.000000,1006.000000) scale(0.100000,-0.100000)"
fill="#000000" stroke="none">
<path d="M6380 8964 c-87 -23 -141 -55 -205 -119 -115 -113 -159 -271 -124
-437 30 -138 134 -261 277 -323 l42 -18 0 -1486 0 -1487 -66 -28 c-181 -79
-287 -277 -257 -481 46 -322 379 -489 675 -339 68 35 149 120 190 200 l34 69
180 5 179 5 3 599 c1 401 6 603 13 612 8 10 111 13 452 17 433 4 444 4 547 29
323 79 622 260 801 484 35 44 55 62 63 55 8 -7 10 -172 8 -618 l-3 -608 -69
-32 c-152 -72 -260 -244 -260 -414 1 -262 232 -477 490 -456 171 14 298 99
378 254 31 60 41 73 62 74 26 0 285 8 308 9 9 0 12 132 12 623 l0 622 70 80
c39 44 76 80 84 80 15 0 78 -78 331 -409 66 -86 179 -232 250 -324 72 -93 141
-183 155 -202 14 -18 84 -108 155 -199 72 -91 147 -189 168 -217 20 -29 44
-55 53 -58 9 -3 126 -6 260 -6 l244 0 32 -66 c81 -170 262 -277 439 -260 212
19 362 146 413 347 21 84 20 137 -3 225 -59 229 -283 376 -508 334 -131 -24
-108 -38 -277 176 -83 105 -162 206 -176 224 -14 19 -161 206 -327 416 -167
210 -303 385 -303 389 0 3 13 25 28 48 51 76 76 162 77 262 0 116 -33 206
-108 291 -46 53 -60 28 144 258 20 23 197 223 394 446 418 475 423 480 438
480 7 0 37 -7 67 -15 112 -30 257 -11 352 48 50 30 130 108 148 144 8 15 19
35 25 43 21 27 47 148 46 211 -1 73 -25 166 -60 229 -61 110 -193 200 -325
223 -114 19 -257 -17 -353 -90 -50 -39 -118 -133 -138 -193 l-17 -50 -252 0
-252 0 -45 -52 c-24 -29 -114 -132 -199 -228 -85 -97 -180 -205 -210 -240 -30
-35 -109 -125 -175 -200 -66 -75 -190 -217 -275 -315 -284 -326 -334 -379
-352 -373 -10 4 -14 87 -16 421 l-2 416 74 37 c154 74 242 204 253 371 10 156
-30 267 -131 369 -142 141 -340 172 -526 81 -71 -35 -161 -131 -200 -214 l-33
-73 -176 -2 -176 -3 -3 -277 c-2 -259 -4 -278 -20 -278 -10 0 -34 21 -54 48
-179 234 -465 402 -829 488 -65 15 -147 18 -694 21 -341 2 -630 5 -642 8 -14
3 -24 15 -28 35 -9 42 -74 139 -123 182 -111 100 -279 140 -422 102z m232
-182 c65 -29 104 -66 137 -134 74 -148 15 -315 -137 -389 -65 -32 -169 -33
-232 -2 -95 48 -155 128 -166 226 -17 145 77 280 221 318 45 12 128 3 177 -19z
m3467 11 c103 -33 186 -141 198 -257 10 -103 -59 -221 -161 -274 -41 -21 -65
-26 -126 -26 -66 -1 -82 3 -130 30 -116 66 -176 186 -150 304 39 178 203 277
369 223z m2364 -11 c136 -60 204 -238 143 -375 -47 -108 -144 -171 -261 -170
-180 1 -301 141 -279 323 8 64 22 96 65 145 88 100 214 129 332 77z m-4162
-420 c229 -52 411 -150 585 -317 59 -57 214 -281 214 -310 0 -4 7 -21 15 -38
17 -39 55 -140 55 -148 0 -4 -19 -19 -42 -34 -80 -53 -125 -116 -157 -219 -26
-85 -26 -117 -1 -199 24 -78 81 -157 146 -203 26 -18 49 -35 51 -38 5 -5 -27
-102 -56 -171 -136 -320 -413 -556 -761 -650 -141 -38 -267 -45 -786 -45 -428
0 -472 -2 -478 -16 -4 -9 -6 -280 -6 -602 1 -631 3 -602 -52 -602 -45 0 -75
17 -82 46 -23 89 -123 198 -233 250 l-73 35 -2 1232 c-1 678 -2 1342 -3 1475
0 134 2 248 5 252 3 5 39 26 80 46 95 48 164 117 210 212 l35 73 620 -4 c593
-3 624 -4 716 -25z m1290 -24 c54 -119 116 -183 225 -235 32 -15 62 -32 66
-38 4 -5 8 -347 8 -758 0 -722 1 -748 18 -735 19 14 111 116 302 338 152 176
163 188 266 305 49 56 105 119 124 141 103 120 388 443 728 827 l184 207 194
0 193 0 34 -69 34 -70 -95 -108 c-52 -59 -118 -135 -147 -168 -79 -90 -345
-394 -571 -651 -111 -126 -210 -236 -220 -245 -14 -13 -45 -18 -119 -21 -86
-3 -109 -8 -165 -34 -99 -47 -170 -117 -221 -222 -42 -85 -43 -89 -43 -187 0
-79 5 -112 22 -159 57 -149 190 -264 345 -298 48 -10 167 -6 212 7 21 6 68
-51 610 -742 50 -64 155 -197 234 -297 79 -99 148 -186 153 -193 6 -8 -3 -38
-26 -87 l-36 -76 -199 0 -199 0 -22 28 c-23 29 -159 206 -200 261 -14 19 -32
42 -40 52 -8 10 -60 77 -115 149 -55 72 -152 198 -215 279 -63 81 -124 160
-135 175 -11 15 -91 119 -177 229 -86 111 -185 239 -220 284 -39 51 -69 82
-79 80 -9 -1 -76 -69 -150 -152 -73 -82 -135 -152 -138 -155 -3 -3 -33 -36
-66 -74 l-60 -70 -1 -530 c0 -292 -1 -537 -2 -544 -2 -9 -16 -12 -48 -10 l-47
3 -41 78 c-53 101 -121 169 -213 213 l-73 35 -1 547 c0 301 -2 619 -5 707 -2
88 -2 235 2 327 l6 166 28 12 c118 49 210 198 210 340 0 141 -73 266 -194 333
l-41 22 -3 405 c-1 223 0 411 3 417 3 8 23 13 53 13 l49 0 24 -52z m-190 -910
c51 -15 114 -69 141 -122 31 -57 31 -155 1 -212 -79 -149 -274 -175 -389 -52
-48 50 -66 94 -66 158 0 72 26 124 88 179 67 59 140 75 225 49z m1556 -558
c58 -25 112 -77 144 -139 33 -63 33 -178 0 -241 -31 -61 -76 -107 -136 -138
-69 -36 -179 -38 -245 -4 -57 30 -104 75 -137 132 -23 38 -26 55 -26 131 0 72
3 92 23 125 87 145 232 197 377 134z m1518 -1967 c50 -25 106 -85 131 -142 84
-188 -57 -401 -265 -401 -100 0 -194 56 -249 148 -24 43 -27 56 -27 144 0 96
0 96 40 154 82 118 243 160 370 97z m-5829 -1 c59 -30 103 -78 133 -142 98
-214 -106 -451 -334 -389 -137 37 -229 178 -210 319 13 93 93 193 181 226 56
21 177 13 230 -14z m2814 3 c84 -43 131 -101 154 -193 49 -189 -118 -375 -313
-348 -181 25 -294 211 -231 381 27 72 96 145 161 169 58 21 181 16 229 -9z"/>
<path d="M6445 8646 c-83 -36 -112 -136 -60 -206 33 -45 60 -59 112 -60 33 0
50 7 77 30 82 72 66 196 -30 236 -41 17 -60 17 -99 0z"/>
<path d="M9935 8641 c-53 -24 -77 -62 -78 -121 -1 -77 58 -140 131 -140 149 0
180 216 39 269 -37 14 -45 14 -92 -8z"/>
<path d="M12292 8653 c-38 -7 -89 -67 -97 -112 -14 -82 50 -161 130 -161 144
0 182 211 49 266 -34 14 -41 15 -82 7z"/>
<path d="M7070 7441 l0 -519 -52 -30 c-72 -41 -124 -94 -161 -166 -30 -58 -32
-67 -32 -171 0 -100 2 -115 26 -160 40 -75 100 -138 166 -172 192 -102 418
-36 525 153 l29 52 282 5 c311 5 353 11 480 71 194 90 333 260 396 487 31 112
30 305 -3 416 -45 150 -91 228 -196 333 -98 98 -171 143 -295 183 -96 31 -192
37 -677 37 l-488 0 0 -519z m1082 250 c218 -60 358 -254 358 -496 0 -154 -54
-289 -151 -379 -124 -115 -221 -138 -565 -134 l-229 3 -19 38 c-29 60 -106
136 -171 171 l-60 31 -3 380 c-1 209 0 386 3 392 3 10 90 13 387 13 343 0 391
-2 450 -19z m-842 -926 c175 -88 173 -332 -3 -420 -117 -58 -256 -16 -328 101
-23 38 -30 147 -11 195 18 45 74 101 127 126 41 20 62 23 115 20 36 -2 81 -12
100 -22z"/>
<path d="M7124 6636 c-45 -45 -48 -108 -8 -155 68 -82 194 -31 194 79 0 42 -4
52 -35 79 -51 45 -104 44 -151 -3z"/>
<path d="M9264 7300 c-36 -14 -64 -59 -64 -102 0 -32 7 -47 34 -74 46 -46 101
-48 148 -5 29 26 33 35 33 81 0 46 -4 55 -33 81 -33 30 -75 37 -118 19z"/>
<path d="M10748 6724 c-33 -17 -68 -81 -68 -122 0 -38 49 -105 89 -122 66 -27
140 6 167 75 22 59 12 109 -31 152 -28 28 -40 33 -81 33 -27 -1 -61 -8 -76
-16z"/>
<path d="M12258 4765 c-102 -56 -81 -212 33 -247 46 -13 78 -6 118 28 90 75
34 235 -82 234 -23 -1 -54 -7 -69 -15z"/>
<path d="M6464 4783 c-12 -2 -39 -19 -59 -36 -46 -40 -58 -102 -29 -162 26
-55 67 -77 133 -72 47 3 59 9 88 40 28 31 33 44 33 86 0 28 -5 62 -12 76 -20
44 -97 78 -154 68z"/>
<path d="M9236 4750 c-45 -40 -61 -86 -47 -137 30 -111 169 -138 240 -47 30
38 29 116 -1 160 -28 41 -56 54 -113 54 -35 0 -52 -6 -79 -30z"/>
<path d="M14681 2904 c0 -11 3 -14 6 -6 3 7 2 16 -1 19 -3 4 -6 -2 -5 -13z"/>
<path d="M6500 2823 c0 -12 5 -25 10 -28 13 -8 13 15 0 35 -8 12 -10 11 -10
-7z"/>
<path d="M15116 2361 c-4 -7 -5 -15 -2 -18 9 -9 19 4 14 18 -4 11 -6 11 -12 0z"/>
<path d="M6952 1314 c1 -9 9 -19 16 -22 9 -3 13 2 10 14 -1 9 -9 19 -16 22 -9
3 -13 -2 -10 -14z"/>
<path d="M4497 1313 c-4 -3 -7 -11 -7 -17 0 -6 5 -5 12 2 6 6 9 14 7 17 -3 3
-9 2 -12 -2z"/>
<path d="M12573 1305 c-9 -25 4 -29 17 -6 7 15 7 21 0 21 -6 0 -13 -7 -17 -15z"/>
<path d="M7460 1300 c0 -5 5 -10 10 -10 6 0 10 5 10 10 0 6 -4 10 -10 10 -5 0
-10 -4 -10 -10z"/>
<path d="M5630 1240 c0 -19 3 -21 12 -12 9 9 9 15 0 24 -9 9 -12 7 -12 -12z"/>
<path d="M4075 1190 c-3 -5 -1 -10 4 -10 6 0 11 5 11 10 0 6 -2 10 -4 10 -3 0
-8 -4 -11 -10z"/>
<path d="M9620 1056 c0 -14 5 -28 10 -31 6 -4 10 7 10 24 0 17 -4 31 -10 31
-5 0 -10 -11 -10 -24z"/>
<path d="M5782 1045 c0 -16 2 -22 5 -12 2 9 2 23 0 30 -3 6 -5 -1 -5 -18z"/>
<path d="M5480 1040 c0 -5 5 -10 10 -10 6 0 10 5 10 10 0 6 -4 10 -10 10 -5 0
-10 -4 -10 -10z"/>
<path d="M7466 1025 c-3 -8 -1 -15 4 -15 6 0 10 7 10 15 0 8 -2 15 -4 15 -2 0
-6 -7 -10 -15z"/>
<path d="M6962 1008 c-16 -16 -15 -28 3 -28 8 0 15 9 15 20 0 23 -2 24 -18 8z"/>
</g>
</svg>
